Coordinates
version=1
nRows=25
nColumns=28
inDegrees=yes

Units are S.I. units (second, meters, Newtons, ...)
Angles are in degrees.

endheader
time	pelvis_tilt	pelvis_list	pelvis_rotation	pelvis_tx	pelvis_ty	pelvis_tz	hip_flexion_r	hip_adduction_r	hip_rotation_r	knee_angle_r	ankle_angle_r	subtalar_angle_r	mtp_angle_r	hip_flexion_l	hip_adduction_l	hip_rotation_l	knee_angle_l	socket_flexion	socket_adduction	socket_rotation	socket_tx	socket_ty	socket_tz	foot_flex	lumbar_extension	lumbar_bending	lumbar_rotation
      0.00000000	      0.22978744	     -6.47941994	     -9.03446166	     -0.87804499	      0.99531479	      0.27428336	    -25.83964184	      8.36001992	      4.85416284	     -2.61980994	      5.19504918	    -11.22643180	      8.84415395	     25.66058096	     -9.72869174	      3.32045594	     -3.37256818	      2.12327070	     -1.28158777	      6.46685156	      0.00000000	     -0.00201635	      0.00000000	     -0.52329444	    -12.35972583	      4.51790306	     11.16185731
      0.00416667	      0.17030565	     -6.51763459	     -8.95460848	     -0.87242724	      0.99461866	      0.27389128	    -25.97491483	      8.37310764	      4.92033068	     -2.83348798	      5.12870899	    -11.20818388	      8.86093019	     25.50624914	     -9.64860217	      3.33715208	     -3.38238922	      2.08999475	     -1.30850852	      6.49244273	      0.00000000	     -0.00229114	      0.00000000	     -0.59791251	    -12.19460286	      4.54330595	     11.14750063
      0.00833333	      0.13790086	     -6.60594100	     -8.98179154	     -0.86674461	      0.99410234	      0.27349814	    -25.96819278	      8.37990329	      4.79880656	     -3.36987423	      4.79168335	    -11.19304333	      8.98396531	     25.21614252	     -9.66104193	      3.22858152	     -3.21213555	      2.09602589	     -1.34229925	      6.66311371	      0.00000000	     -0.00273887	      0.00000000	     -1.11584500	    -12.15129572	      4.66230140	     11.04062251
      0.01250000	      0.07235767	     -6.64338973	     -8.91302129	     -0.86062394	      0.99339484	      0.27305610	    -26.09309563	      8.38405334	      4.85200303	     -3.62086007	      4.72825267	    -11.18264282	      9.00560674	     25.03152881	     -9.57356147	      3.23206087	     -3.22594526	      2.07290016	     -1.38420611	      6.69965559	      0.00000000	     -0.00315492	      0.00000000	     -1.17876021	    -11.97796803	      4.71692607	     11.03641930
      0.01666667	      0.03533428	     -6.74533683	     -8.98187394	     -0.85462675	      0.99290566	      0.27270062	    -25.99418661	      8.38835077	      4.68469633	     -4.36332096	      4.39409826	    -11.19373426	      9.14192787	     24.70395308	     -9.61665831	      3.03694420	     -3.02106945	      2.10429046	     -1.41691967	      6.94561358	      0.00000000	     -0.00365179	      0.00000000	     -1.71193547	    -11.95195746	      4.84282210	     10.98342839
      0.02083333	      0.38597029	     -6.47510223	     -9.27850450	     -0.84777313	      0.99291291	      0.27275552	    -26.21073023	      7.77519439	      3.80254509	     -5.13423393	      3.56091401	    -10.20715474	     14.40698139	     23.61663385	     -9.33915815	      1.92994440	     -2.22809370	      2.46203975	     -1.48914744	      7.61014775	      0.00000000	     -0.00415448	      0.00000000	     -1.87922846	    -12.17067617	      4.42350886	     11.27648275
      0.02500000	      0.31862677	     -6.52822720	     -9.24650384	     -0.84136093	      0.99230354	      0.27227712	    -26.22050737	      7.77305216	      3.79514471	     -5.61948901	      3.35792044	    -10.23755205	     14.37522274	     23.38553294	     -9.28133989	      1.92194309	     -2.20690477	      2.43487547	     -1.53536590	      7.74318744	      0.00000000	     -0.00469734	      0.00000000	     -2.19870887	    -12.03377743	      4.49608276	     11.25859894
      0.02916667	      0.25050331	     -6.58787693	     -9.24003454	     -0.83488156	      0.99172077	      0.27181560	    -26.18237332	      7.76277170	      3.76793916	     -6.19574774	      3.11470834	    -10.27311689	     14.34581800	     23.13163356	     -9.24324165	      1.88114845	     -2.16525483	      2.42663290	     -1.58277258	      7.91954479	      0.00000000	     -0.00532851	      0.00000000	     -2.50538463	    -11.90274031	      4.57676523	     11.24236309
      0.03333333	      0.18086247	     -6.64773978	     -9.26361383	     -0.82827065	      0.99119265	      0.27143970	    -26.10132206	      7.74398304	      3.69945179	     -6.85900634	      2.83712614	    -10.31352791	     14.33081143	     22.84522109	     -9.22016143	      1.73824295	     -2.08947050	      2.43765412	     -1.61841583	      8.11975188	      0.00000000	     -0.00599301	      0.00000000	     -2.79426527	    -11.75676431	      4.66158800	     11.23549957
      0.03750000	      0.11169839	     -6.66914480	     -9.20337185	     -0.82142581	      0.99061516	      0.27093330	    -26.15862962	      7.71632798	      3.78111403	     -7.24786644	      2.70916937	    -10.30997804	     14.32718632	     22.59090987	     -9.12465736	      1.78495201	     -2.10694986	      2.40517440	     -1.67853698	      8.24764201	      0.00000000	     -0.00670892	      0.00000000	     -2.91590026	    -11.55454506	      4.70180249	     11.23580999
      0.04166667	     -0.01867308	     -6.55427197	     -9.56668699	     -0.81454659	      0.99031311	      0.27105840	    -25.80417766	      7.38302701	      3.68266542	     -8.27768292	      2.32507691	    -10.17255463	     14.73127964	     22.15831856	     -9.07523480	      0.86605929	     -1.74044567	      2.56914433	     -1.70991835	      8.91144690	      0.00000000	     -0.00732951	      0.00000000	     -3.27266600	    -11.30319246	      4.54052470	     11.51262704
      0.04583333	     -0.03535165	     -6.57854120	     -9.51153786	     -0.80786845	      0.98996716	      0.27054817	    -25.77239302	      7.35329146	      3.68010226	     -8.90287715	      2.01204911	    -10.19517044	     14.72468425	     21.86025700	     -8.98328670	      0.90100759	     -1.77982661	      2.53514639	     -1.75110244	      9.06110403	      0.00000000	     -0.00805351	      0.00000000	     -3.57631651	    -11.21506640	      4.56065391	     11.49067738
      0.05000000	     -0.06001418	     -6.58553537	     -9.49822970	     -0.80115419	      0.98966126	      0.27011531	    -25.66593311	      7.28920283	      3.61197236	     -9.64692159	      1.61512888	    -10.25216918	     14.71599820	     21.55002972	     -8.89530071	      0.85086263	     -1.79549646	      2.52742244	     -1.78287026	      9.21603360	      0.00000000	     -0.00878689	      0.00000000	     -3.83597012	    -11.11188932	      4.57310494	     11.45389800
      0.05416667	     -0.10233799	     -6.54473019	     -9.53337753	     -0.79428135	      0.98940954	      0.26975353	    -25.50843515	      7.15122385	      3.49263432	    -10.43146003	      1.18208952	    -10.34060182	     14.76031821	     21.22156622	     -8.78189820	      0.69689247	     -1.78343375	      2.54017556	     -1.82060338	      9.39826051	      0.00000000	     -0.00957347	      0.00000000	     -4.03507925	    -10.94817135	      4.54176982	     11.42081509
      0.05833333	      0.04133470	     -6.25070903	     -9.72559741	     -0.78710393	      0.98957240	      0.26969656	    -25.46853212	      6.63170470	      3.22638006	    -11.25550652	      0.46859400	    -10.14246809	     16.73829829	     20.64098455	     -8.44849988	     -0.33721684	     -1.81466469	      2.45099491	     -1.90625912	     10.21636233	      0.00000000	     -0.01016929	      0.00000000	     -4.24207194	    -10.91650658	      4.11350084	     11.67229420
      0.06250000	      0.01367718	     -6.19556377	     -9.67371643	     -0.78039288	      0.98947512	      0.26923005	    -25.28504289	      6.53015994	      3.16694785	    -12.07267746	     -0.02101252	    -10.25903825	     16.69755000	     20.35937527	     -8.29371377	     -0.30543538	     -1.87781737	      2.44804273	     -1.93022960	     10.29896194	      0.00000000	     -0.01081513	      0.00000000	     -4.44498097	    -10.78617134	      4.05118571	     11.56387510
      0.06666667	     -0.01818033	     -6.10572422	     -9.63828300	     -0.77364472	      0.98944122	      0.26880315	    -25.04793962	      6.38805077	      3.07282478	    -12.95097980	     -0.55485378	    -10.39571570	     16.66320496	     20.07499611	     -8.11583157	     -0.33158763	     -1.93636831	      2.46436152	     -1.92531990	     10.37954858	      0.00000000	     -0.01147996	      0.00000000	     -4.64343798	    -10.64802828	      3.95893040	     11.46386314
      0.07083333	     -0.03743752	     -6.00361128	     -9.55393785	     -0.76700688	      0.98948500	      0.26835135	    -24.82134224	      6.26676847	      3.07100333	    -13.81822231	     -1.06304482	    -10.49294140	     16.63213143	     19.80577679	     -7.91929089	     -0.32116365	     -2.00474365	      2.49724996	     -1.91683198	     10.49427408	      0.00000000	     -0.01204493	      0.00000000	     -4.81605385	    -10.53176641	      3.81849991	     11.37887063
      0.07500000	     -0.11898613	     -5.60585057	     -9.56293588	     -0.75979770	      0.98948267	      0.26804473	    -24.39038500	      5.75703802	      2.50801131	    -14.82468136	     -2.10792163	    -10.63863950	     18.84439079	     19.61726587	     -7.44694504	     -0.89599813	     -2.25054639	      2.37752727	     -1.98314860	     10.94120960	      0.00000000	     -0.01242060	      0.00000000	     -4.93391437	    -10.18668183	      3.37141535	     11.27667372
      0.07916667	     -0.09094097	     -5.51950783	     -9.44822311	     -0.75321944	      0.98971767	      0.26758209	    -24.17963134	      5.66961662	      2.59209368	    -15.72850667	     -2.61003853	    -10.69403130	     18.76025364	     19.31909877	     -7.26880247	     -0.82176027	     -2.36502579	      2.40711595	     -1.93116597	     11.02951449	      0.00000000	     -0.01297805	      0.00000000	     -5.07904566	    -10.13400569	      3.24414682	     11.19072830
      0.08333333	     -0.05899226	     -5.37895260	     -9.42271472	     -0.74672474	      0.99006754	      0.26716677	    -23.81260763	      5.45969583	      2.43814838	    -16.87736476	     -3.34046999	    -10.85994241	     18.63040652	     19.00126775	     -7.04997079	     -0.88232689	     -2.47169702	      2.42699728	     -1.91242908	     11.01649628	      0.00000000	     -0.01340475	      0.00000000	     -5.20606482	    -10.08718298	      3.05420875	     11.06363608
      0.08750000	     -0.04009677	     -5.19286462	     -9.32673694	     -0.74015333	      0.99043675	      0.26677071	    -23.45940723	      5.25861553	      2.35003821	    -17.95305878	     -4.00314907	    -11.00437099	     18.53240589	     18.71644284	     -6.78747849	     -0.89488481	     -2.58163787	      2.47000843	     -1.84080283	     11.08982634	      0.00000000	     -0.01377611	      0.00000000	     -5.29300605	    -10.00563207	      2.81817344	     10.95233701
      0.09166667	     -0.16774665	     -4.65024406	     -9.24001739	     -0.73294754	      0.99063181	      0.26639434	    -22.84708778	      4.65930502	      1.73170697	    -19.13915635	     -4.90114212	    -11.34433107	     18.69729842	     18.56685679	     -6.14955258	     -1.26622190	     -2.66017833	      2.52153252	     -1.84851748	     11.23473254	      0.00000000	     -0.01374804	      0.00000000	     -5.35561971	     -9.57191907	      2.23051981	     10.75489306
      0.09583333	     -0.09516634	     -4.54915938	     -9.12155245	     -0.72660310	      0.99118141	      0.26599127	    -22.49470317	      4.56142080	      1.75901379	    -20.30025443	     -5.55651373	    -11.37123858	     18.65593851	     18.25369685	     -5.98145920	     -1.24878081	     -2.82427800	      2.54244649	     -1.74276525	     11.31079795	      0.00000000	     -0.01414432	      0.00000000	     -5.42619869	     -9.59809333	      2.04477137	     10.63660243
      0.10000000	     -0.02486107	     -4.36669383	     -9.04305312	     -0.72030159	      0.99177331	      0.26559570	    -22.02761331	      4.33822558	      1.62975437	    -21.61064119	     -6.36083798	    -11.47592880	     18.57683096	     17.94662643	     -5.73967022	     -1.28745636	     -2.99657654	      2.56550561	     -1.63613758	     11.34421885	      0.00000000	     -0.01439666	      0.00000000	     -5.47790819	     -9.62456302	      1.80400720	     10.50153605
